<svg width="22" height="23" viewBox="0 0 22 23" fill="none" xmlns="http://www.w3.org/2000/svg">
<g clip-path="url(#clip0_29_176)">
<path d="M21.9784 6.74846C21.9268 5.57951 21.7378 4.77587 21.467 4.07951C21.1877 3.34033 20.7579 2.67855 20.1948 2.12841C19.6447 1.56971 18.9786 1.13557 18.2479 0.860587C17.5476 0.589797 16.7481 0.400765 15.5792 0.349226C14.4015 0.293322 14.0276 0.280396 11.0407 0.280396C8.05381 0.280396 7.67994 0.293322 6.50663 0.344861C5.33769 0.3964 4.53405 0.5856 3.83785 0.856222C3.09851 1.13557 2.43673 1.56534 1.88659 2.12841C1.32789 2.67855 0.893919 3.3447 0.618765 4.07531C0.347976 4.77587 0.158944 5.57515 0.107405 6.74409C0.0515009 7.92176 0.0385742 8.29563 0.0385742 11.2825C0.0385742 14.2695 0.0515009 14.6433 0.10304 15.8166C0.154579 16.9856 0.343779 17.7892 0.614568 18.4856C0.893919 19.2248 1.32789 19.8865 1.88659 20.4367C2.43673 20.9954 3.10288 21.4295 3.83349 21.7045C4.53405 21.9753 5.33332 22.1643 6.50243 22.2159C7.67557 22.2676 8.04961 22.2803 11.0365 22.2803C14.0234 22.2803 14.3973 22.2676 15.5706 22.2159C16.7395 22.1643 17.5432 21.9753 18.2394 21.7045C19.7179 21.1329 20.8868 19.9639 21.4585 18.4856C21.7291 17.785 21.9183 16.9856 21.9698 15.8166C22.0214 14.6433 22.0343 14.2695 22.0343 11.2825C22.0343 8.29563 22.0299 7.92176 21.9784 6.74846ZM19.9972 15.7307C19.9499 16.8051 19.7694 17.3853 19.619 17.7721C19.2493 18.7305 18.4887 19.4912 17.5303 19.8608C17.1435 20.0113 16.5591 20.1917 15.4888 20.2389C14.3285 20.2906 13.9804 20.3034 11.0451 20.3034C8.10971 20.3034 7.75733 20.2906 6.60115 20.2389C5.52672 20.1917 4.94653 20.0113 4.55973 19.8608C4.08279 19.6846 3.64865 19.4052 3.29627 19.0399C2.93097 18.6832 2.65162 18.2534 2.47534 17.7765C2.32492 17.3897 2.14445 16.8051 2.09728 15.735C2.04557 14.5747 2.03281 14.2265 2.03281 11.2911C2.03281 8.35573 2.04557 8.00335 2.09728 6.84734C2.14445 5.77291 2.32492 5.19272 2.47534 4.80592C2.65162 4.32881 2.93097 3.89484 3.30064 3.54229C3.65721 3.17699 4.08698 2.89764 4.5641 2.72153C4.95089 2.57111 5.53545 2.39064 6.60551 2.3433C7.76589 2.29176 8.11407 2.27883 11.0493 2.27883C13.989 2.27883 14.337 2.29176 15.4932 2.3433C16.5676 2.39064 17.1478 2.57111 17.5346 2.72153C18.0116 2.89764 18.4457 3.17699 18.7981 3.54229C19.1634 3.89904 19.4427 4.32881 19.619 4.80592C19.7694 5.19272 19.9499 5.7771 19.9972 6.84734C20.0488 8.00772 20.0617 8.35573 20.0617 11.2911C20.0617 14.2265 20.0488 14.5703 19.9972 15.7307Z" fill="#98A2B3"/>
<path d="M11.0408 5.63098C7.92074 5.63098 5.38928 8.16227 5.38928 11.2825C5.38928 14.4027 7.92074 16.934 11.0408 16.934C14.161 16.934 16.6923 14.4027 16.6923 11.2825C16.6923 8.16227 14.161 5.63098 11.0408 5.63098ZM11.0408 14.9485C9.01665 14.9485 7.37479 13.3068 7.37479 11.2825C7.37479 9.25819 9.01665 7.61649 11.0408 7.61649C13.0651 7.61649 14.7068 9.25819 14.7068 11.2825C14.7068 13.3068 13.0651 14.9485 11.0408 14.9485Z" fill="#98A2B3"/>
<path d="M18.2352 5.40762C18.2352 6.13621 17.6444 6.72698 16.9157 6.72698C16.1871 6.72698 15.5963 6.13621 15.5963 5.40762C15.5963 4.67886 16.1871 4.08826 16.9157 4.08826C17.6444 4.08826 18.2352 4.67886 18.2352 5.40762Z" fill="#98A2B3"/>
</g>
<defs>
<clipPath id="clip0_29_176">
<rect width="22" height="22" fill="white" transform="translate(0 0.280396)"/>
</clipPath>
</defs>
</svg>
