<svg width="18.000000" height="21.000000" viewBox="0 0 18 21" fill="none" xmlns="http://www.w3.org/2000/svg" xmlns:xlink="http://www.w3.org/1999/xlink">
	<desc>
			Created with Pixso.
	</desc>
	<defs/>
	<path id="Vector" d="M16.95 7.63C16.83 6.27 16.37 4.96 15.63 3.81C14.89 2.67 13.88 1.72 12.7 1.04C11.51 0.37 10.18 -0.01 8.82 -0.06C7.45 -0.11 6.1 0.16 4.86 0.75C3.63 1.33 2.55 2.2 1.73 3.29C0.9 4.37 0.35 5.64 0.12 6.99C-0.11 8.33 -0.02 9.71 0.39 11.01C0.81 12.31 1.53 13.49 2.5 14.46L7.8 19.77C7.89 19.86 8 19.93 8.12 19.98C8.24 20.03 8.37 20.06 8.51 20.06C8.64 20.06 8.77 20.03 8.89 19.98C9.01 19.93 9.12 19.86 9.21 19.77L14.5 14.46C15.39 13.57 16.07 12.5 16.5 11.32C16.92 10.14 17.08 8.87 16.95 7.63ZM13.1 13.05L8.5 17.65L3.9 13.05C3.22 12.37 2.7 11.55 2.37 10.64C2.05 9.74 1.93 8.78 2.03 7.83C2.12 6.86 2.43 5.92 2.93 5.08C3.43 4.25 4.11 3.54 4.92 3C5.98 2.29 7.22 1.91 8.5 1.91C9.77 1.91 11.01 2.29 12.08 3C12.88 3.53 13.56 4.24 14.06 5.08C14.56 5.91 14.87 6.84 14.97 7.81C15.06 8.76 14.94 9.73 14.62 10.64C14.3 11.54 13.78 12.36 13.1 13.05ZM10.29 4.25C10.19 4.15 10.08 4.08 9.96 4.03C9.84 3.98 9.71 3.95 9.58 3.95C9.44 3.95 9.31 3.98 9.19 4.03C9.07 4.08 8.96 4.15 8.87 4.25L5.29 7.83C5.1 8.01 5 8.26 5 8.53L5 11C5 11.26 5.1 11.51 5.29 11.7C5.48 11.89 5.73 12 6 12L8.42 12C8.55 12 8.68 11.97 8.8 11.92C8.92 11.87 9.03 11.8 9.13 11.71L12.71 8.13C12.89 7.94 13 7.68 13 7.42C13 7.16 12.89 6.9 12.71 6.72L10.29 4.25ZM8.01 10L7.01 10L7.01 9L9.59 6.42L10.59 7.42L8.01 10Z" fill="#000000" fill-opacity="1.000000" fill-rule="nonzero"/>
</svg>
