<svg width="20.000000" height="20.000000" viewBox="0 0 20 20" fill="none" xmlns="http://www.w3.org/2000/svg" xmlns:xlink="http://www.w3.org/1999/xlink">
	<desc>
			Created with Pixso.
	</desc>
	<defs>
		<clipPath id="clip282_4284">
			<rect id="Cancel / 24 / Outline" width="20.000000" height="20.000000" fill="white" fill-opacity="0"/>
		</clipPath>
	</defs>
	<rect id="Cancel / 24 / Outline" width="20.000000" height="20.000000" fill="#FFFFFF" fill-opacity="0"/>
	<g clip-path="url(#clip282_4284)">
		<path id="Vector" d="M11.17 10L14.75 6.42C14.91 6.26 15 6.05 15 5.83C15 5.61 14.91 5.39 14.75 5.24C14.6 5.08 14.38 4.99 14.16 4.99C13.94 4.99 13.73 5.08 13.57 5.24L10 8.82L6.42 5.24C6.26 5.08 6.05 4.99 5.83 4.99C5.61 4.99 5.39 5.08 5.24 5.24C5.08 5.39 4.99 5.61 4.99 5.83C4.99 6.05 5.08 6.26 5.24 6.42L8.82 10L5.24 13.57C5.16 13.65 5.1 13.74 5.05 13.84C5.01 13.94 4.99 14.05 4.99 14.16C4.99 14.27 5.01 14.38 5.05 14.48C5.1 14.58 5.16 14.68 5.24 14.75C5.31 14.83 5.41 14.89 5.51 14.94C5.61 14.98 5.72 15 5.83 15C5.94 15 6.05 14.98 6.15 14.94C6.25 14.89 6.34 14.83 6.42 14.75L10 11.17L13.57 14.75C13.65 14.83 13.74 14.89 13.84 14.94C13.94 14.98 14.05 15 14.16 15C14.27 15 14.38 14.98 14.48 14.94C14.58 14.89 14.68 14.83 14.75 14.75C14.83 14.68 14.89 14.58 14.94 14.48C14.98 14.38 15 14.27 15 14.16C15 14.05 14.98 13.94 14.94 13.84C14.89 13.74 14.83 13.65 14.75 13.57L11.17 10Z" fill="#98A2B3" fill-opacity="1.000000" fill-rule="nonzero"/>
	</g>
</svg>
