<svg width="18.000000" height="18.000000" viewBox="0 0 18 18" fill="none" xmlns="http://www.w3.org/2000/svg" xmlns:xlink="http://www.w3.org/1999/xlink">
	<desc>
			Created with Pixso.
	</desc>
	<defs>
		<clipPath id="clip89_1193">
			<rect id="turn up left / 24 / Outline" width="18.000000" height="18.000000" fill="white" fill-opacity="0"/>
		</clipPath>
	</defs>
	<rect id="turn up left / 24 / Outline" width="18.000000" height="18.000000" fill="#FFFFFF" fill-opacity="0"/>
	<g clip-path="url(#clip89_1193)">
		<path id="Vector" d="M11.01 4.97L5.76 4.97L7.95 2.78C8.02 2.71 8.08 2.62 8.12 2.53C8.15 2.44 8.17 2.34 8.17 2.25C8.17 2.15 8.15 2.05 8.12 1.96C8.08 1.87 8.02 1.78 7.95 1.71C7.81 1.57 7.62 1.49 7.42 1.49C7.23 1.49 7.04 1.57 6.89 1.71L3.45 5.18C3.38 5.26 3.33 5.34 3.29 5.43C3.21 5.62 3.21 5.82 3.29 6C3.33 6.09 3.38 6.18 3.45 6.25L6.93 9.75C7.06 9.89 7.25 9.97 7.45 9.97C7.6 9.97 7.75 9.93 7.87 9.85C7.99 9.76 8.09 9.65 8.15 9.51C8.2 9.37 8.22 9.22 8.19 9.07C8.16 8.93 8.09 8.79 7.98 8.69L5.79 6.47L11.04 6.47C11.64 6.47 12.21 6.7 12.63 7.13C13.06 7.55 13.29 8.12 13.29 8.72L13.29 15.75C13.29 15.94 13.37 16.13 13.51 16.28C13.65 16.42 13.84 16.5 14.04 16.5C14.24 16.5 14.43 16.42 14.57 16.28C14.71 16.13 14.79 15.94 14.79 15.75L14.79 8.72C14.79 8.22 14.69 7.73 14.5 7.28C14.31 6.82 14.04 6.4 13.68 6.06C13.33 5.71 12.92 5.43 12.46 5.24C12 5.06 11.51 4.96 11.01 4.97Z" fill="#98A2B3" fill-opacity="1.000000" fill-rule="nonzero"/>
	</g>
</svg>
