<svg width="146" height="63" viewBox="0 0 146 63" fill="none" xmlns="http://www.w3.org/2000/svg">
<path fill-rule="evenodd" clip-rule="evenodd" d="M40.6471 0.86284H40.6439H36.2522C36.2522 0.86284 31.5273 0.512329 28.0995 6.41235C24.6734 12.3122 20.6967 19.1581 20.6967 19.1581C20.6967 19.1581 16.7216 12.3121 13.2938 6.41235C9.86754 0.512453 5.14118 0.86284 5.14118 0.86284H0.750779C0.176256 0.86284 -0.176897 1.48089 0.0913707 1.97502L20.04 36.3219C20.168 36.5535 20.4141 36.71 20.6967 36.71C20.9821 36.71 21.2317 36.5502 21.3579 36.3151L41.2689 2.03456C41.5971 1.54352 41.2515 0.864452 40.6471 0.86284Z" fill="#1CBBEE"/>
<path fill-rule="evenodd" clip-rule="evenodd" d="M114.676 0.86284H110.283C110.283 0.86284 105.556 0.512329 102.13 6.41235C98.7024 12.3122 94.7273 19.1581 94.7273 19.1581C94.7273 19.1581 90.7503 12.3121 87.3243 6.41235C83.8969 0.512453 79.1719 0.86284 79.1719 0.86284H74.7816C74.2071 0.86284 73.8519 1.48089 74.1201 1.97502L94.0693 36.3219C94.1987 36.5535 94.4447 36.71 94.7273 36.71C95.0129 36.71 95.2605 36.5502 95.3884 36.3151L115.298 2.03456C115.628 1.54352 115.281 0.864452 114.676 0.86284Z" fill="#1CBBEE"/>
<path fill-rule="evenodd" clip-rule="evenodd" d="M57.7128 0.280518C67.9087 0.280518 76.175 8.56578 76.175 18.7863C76.175 20.4905 75.9446 22.1405 75.5139 23.7077H48.9796C50.6965 26.7639 53.9634 28.8282 57.7128 28.8282C60.2946 28.8282 62.6474 27.8491 64.4243 26.2412L69.8689 32.7132C66.6225 35.5643 62.368 37.2923 57.7128 37.2923C47.5165 37.2923 39.2505 29.0068 39.2505 18.7863C39.2505 8.5659 47.5164 0.280518 57.7128 0.280518ZM48.162 15.7457H67.2634C65.9772 11.6861 62.1882 8.74463 57.7127 8.74463C53.237 8.74463 49.4481 11.6861 48.1618 15.7457H48.162Z" fill="#1CBBEE"/>
<path d="M20.0277 45.8607V51.2784H21.0218V49.365H21.8994C22.551 49.365 23.034 49.1963 23.3543 48.8665C23.6842 48.5364 23.845 48.1186 23.845 47.6274C23.845 47.1361 23.6919 46.7257 23.3765 46.381C23.0624 46.0365 22.6016 45.8607 21.9798 45.8607H20.0277ZM21.0218 48.4485V46.7917H22.002C22.5209 46.7917 22.8286 47.151 22.8286 47.6127C22.8286 48.0743 22.5131 48.4484 21.9292 48.4484H21.0218V48.4485ZM28.0538 51.3738C28.66 51.3738 29.1586 51.1975 29.5453 50.8533C29.9333 50.5015 30.1307 49.9955 30.1307 49.3357V45.8607H29.1207V49.2478C29.1207 49.9882 28.7041 50.3988 28.0538 50.3988C27.3879 50.3988 26.9855 50.0027 26.9855 49.2478V45.8607H25.9834V49.3357C25.9834 49.9955 26.1805 50.5015 26.5688 50.8533C26.9571 51.1975 27.4543 51.3738 28.0538 51.3738ZM36.7525 51.2784L35.392 49.1303C36.1447 48.8883 36.5253 48.2577 36.5253 47.5541C36.5253 47.0777 36.3721 46.6817 36.0582 46.3516C35.7439 46.0218 35.2975 45.8606 34.712 45.8606H32.7015V51.2783H33.6957V49.2476H34.3616L35.5674 51.2783H36.7527L36.7525 51.2784ZM34.7119 46.7917C35.2091 46.7917 35.5026 47.1288 35.5026 47.5613C35.5026 48.0011 35.2091 48.3457 34.6029 48.3457H33.6956V46.7916H34.7119V46.7917ZM38.9712 51.2784H39.973V45.8607H38.9712V51.2784ZM43.6045 51.2784V49.0716H45.8282V48.1185H43.6045V46.8138H46.1421V45.8607H42.6087V51.2784H43.6045ZM48.3609 51.2784H49.363V45.8607H48.3609V51.2784ZM55.5901 51.2784V50.3398H53.0006V49.0058H55.3928V48.0744H53.0006V46.7989H55.5901V45.8608H51.9983V51.2785H55.5901V51.2784ZM60.0406 51.2784C60.8516 51.2784 61.4953 51.0363 61.9562 50.5524C62.4234 50.0687 62.6587 49.4087 62.6587 48.5806C62.6587 47.7372 62.4313 47.0777 61.9703 46.5936C61.5095 46.1025 60.8816 45.8606 60.0829 45.8606H57.9983V51.2783H60.0406V51.2784ZM58.994 46.8208H60.0829C60.5739 46.8208 60.9462 46.9895 61.2178 47.3194C61.4875 47.6496 61.6203 48.06 61.6203 48.5585C61.6203 49.0643 61.4812 49.4896 61.2097 49.8197C60.9401 50.1493 60.5659 50.3181 60.0766 50.3181H58.994V46.8208ZM68.6883 51.2784L69.8941 47.6127L71.1156 51.2784H71.9061L73.7052 45.8607H72.6147L71.4957 49.5777L70.194 45.8607H69.5879L68.3143 49.5777L67.1733 45.8607H66.0847L67.8897 51.2784H68.6882H68.6883ZM79.8298 51.2784L77.7593 45.8607H76.9925L74.8995 51.2784H75.9602L76.4068 50.0468H78.3228L78.7694 51.2784H79.8298ZM78.0385 49.1449H76.6989L77.3726 47.2902L78.0387 49.1449H78.0385ZM82.4511 51.2784H83.4612V46.8284H85.0188V45.8607H80.8936V46.8284H82.4511V51.2784ZM90.7267 51.2784V50.3398H88.1369V49.0058H90.5294V48.0744H88.1369V46.7989H90.7267V45.8608H87.1349V51.2785H90.7267V51.2784ZM97.1875 51.2784L95.8272 49.1303C96.5799 48.8883 96.9601 48.2577 96.9601 47.5541C96.9601 47.0777 96.8072 46.6817 96.4932 46.3516C96.1775 46.0218 95.7326 45.8606 95.1469 45.8606H93.1348V51.2783H94.1306V49.2476H94.7951L96.0026 51.2783H97.1877L97.1875 51.2784ZM95.1468 46.7917C95.644 46.7917 95.9375 47.1288 95.9375 47.5613C95.9375 48.0011 95.644 48.3457 95.0363 48.3457H94.1305V46.7916H95.1468V46.7917Z" fill="#67C2C7"/>
<path fill-rule="evenodd" clip-rule="evenodd" d="M112.684 40.5424C111.428 41.1352 110.055 41.4825 108.531 41.4701L102.888 41.4727C103.164 53.0114 112.582 62.2802 124.159 62.2802C135.706 62.2802 145.156 53.0453 145.432 41.4727L139.79 41.4701C138.266 41.4825 136.893 41.1352 135.636 40.5424C135.867 47.0534 130.664 52.4615 124.16 52.4615C117.669 52.4615 112.453 47.0462 112.684 40.5424H112.684Z" fill="#67C2C7"/>
<path fill-rule="evenodd" clip-rule="evenodd" d="M124.161 0.858521C123.878 0.858521 123.63 1.0153 123.503 1.24661L105.971 31.1328C104.996 32.7917 104.111 34.5032 103.557 36.3599L108.57 36.3626C111.589 36.3626 114.371 35.0203 115.89 32.3842L124.16 18.411L132.431 32.3842C133.949 35.0203 136.73 36.3626 139.749 36.3626L144.764 36.3599C144.21 34.5032 143.325 32.7916 142.348 31.1328L124.817 1.24661C124.689 1.01517 124.443 0.858521 124.16 0.858521H124.161Z" fill="#1CBBEE"/>
</svg>
